name GIL03_xslow1Moments.mot
datacolumns 7
datarows 27
range 0.27499998 0.49166664
endheader

                time	          RHipMoment	          LHipMoment	         RKneeMoment	         LKneeMoment	        RAnkleMoment	        LAnkleMoment	
          0.27499998	        -95.74869537	        560.56481934	         52.23252487	         14.84624290	        -18.30569649	        377.23876953	
          0.28333333	       -117.32432556	        545.33856201	         62.83073425	         11.30910492	        -16.11163902	        406.78778076	
          0.29166666	       -134.50219727	        522.87933350	         68.74089050	         12.24052334	        -14.19769955	        436.68386841	
          0.29999998	       -142.61412048	        502.67828369	         68.96306610	         12.30608273	        -12.67245483	        467.69064331	
          0.30833331	       -140.97143555	        487.29602051	         63.87419128	         11.75490761	        -11.58865738	        496.99969482	
          0.31666666	       -131.92567444	        475.80587769	         55.28635406	          8.70169926	        -10.89507484	        525.82421875	
          0.32499999	       -117.64286041	        462.98086548	         45.24596786	          4.26581430	        -10.47373486	        553.14367676	
          0.33333331	       -100.78910065	        444.30999756	         35.31487656	          0.09752426	        -10.23730087	        578.18579102	
          0.34166664	        -84.41728973	        425.42337036	         26.57868195	         -8.32080078	        -10.09149265	        604.76440430	
          0.34999999	        -70.59704590	        405.42480469	         19.67257118	        -18.51110268	         -9.96074867	        635.11669922	
          0.35833332	        -60.39706039	        380.98135376	         14.60984135	        -27.12066841	         -9.83983612	        665.47265625	
          0.36666664	        -54.29751968	        357.56274414	         11.04785252	        -35.13846970	         -9.77476311	        694.37158203	
          0.37500000	        -52.23445511	        338.75347900	          8.43840313	        -40.77860260	         -9.81361389	        719.28161621	
          0.38333333	        -52.98384857	        330.48666382	          5.98756361	        -46.91463089	         -9.99879932	        742.31158447	
          0.39166665	        -54.69921112	        329.32778931	          3.23055553	        -51.91321945	        -10.32921124	        761.54211426	
          0.39999998	        -56.62778091	        331.67459106	         -0.07981279	        -56.55795288	        -10.78732109	        778.46081543	
          0.40833330	        -58.61598969	        332.08944702	         -4.51873970	        -60.50721741	        -11.32441998	        793.99694824	
          0.41666666	        -59.72398758	        323.35238647	        -10.56988239	        -61.55545425	        -11.84848785	        808.03515625	
          0.42499998	        -59.09013367	        311.43441772	        -18.01069450	        -63.28659058	        -12.29962635	        819.37689209	
          0.43333334	        -57.18187714	        295.56689453	        -25.89513016	        -65.71585083	        -12.63041687	        828.58087158	
          0.44166666	        -55.54438782	        278.66439819	        -32.74951553	        -68.30301666	        -12.77510071	        834.65954590	
          0.44999999	        -53.95489502	        259.99346924	        -37.94882965	        -69.09165955	        -12.74070263	        837.03375244	
          0.45833331	        -50.61552048	        244.77429199	        -41.66473770	        -70.71564484	        -12.61645794	        836.04064941	
          0.46666664	        -44.38177490	        235.44468689	        -43.98729324	        -74.77378845	        -12.47295856	        834.92425537	
          0.47499996	        -35.12299728	        226.23065186	        -45.48518372	        -78.51994324	        -12.36654472	        833.33941650	
          0.48333332	        -23.99082947	        214.08206177	        -46.83312225	        -80.02278137	        -12.30616474	        832.60662842	
          0.49166664	        -13.27083397	        206.15998840	        -48.00245285	        -83.47622681	        -12.29188824	        836.20111084	
